<svg xmlns="http://www.w3.org/2000/svg" xmlns:xlink="http://www.w3.org/1999/xlink" width="299.114" height="202.872" viewBox="0 0 299.114 202.872">
  <defs>
    <linearGradient id="linear-gradient" x1="1" x2="0" y2="1" gradientUnits="objectBoundingBox">
      <stop offset="0" stop-color="#6b6c8d"/>
      <stop offset="1" stop-color="#e1e2e7"/>
    </linearGradient>
    <linearGradient id="linear-gradient-2" x1="0.5" x2="0.5" y2="1" gradientUnits="objectBoundingBox">
      <stop offset="0" stop-color="#e1e2e7"/>
      <stop offset="1" stop-color="#e1e2e7"/>
    </linearGradient>
  </defs>
  <g id="main_dolphin" transform="translate(-488.928 -263.293) rotate(3)">
    <ellipse id="Ellipse_33" data-name="Ellipse 33" cx="5.5" cy="6" rx="5.5" ry="6" transform="translate(535 333)" fill="url(#linear-gradient)"/>
    <path id="Path_20" data-name="Path 20" d="M569.433,304.417l21.107-21.577,46.906-8.443,60.977,18.762L719.062,313.8H659.023l-80.677,3.752Z" fill="url(#linear-gradient-2)"/>
    <g id="dolphin" transform="translate(808.377 367.374) rotate(165)">
      <path id="Path_14" data-name="Path 14" d="M110.775,149.07a10.04,10.04,0,0,1-3.1-1.07c-.963-.963.086-2.312,3.018-3.917,4.388-2.376,4.816-2.911,4.966-5.994a11.022,11.022,0,0,0-1.177-6.079c-.685-1.413-1.37-2.141-7.642-8.412-3.767-3.767-11-10.639-16.076-15.284C69.376,88.748,61.884,81,53.557,69.826,48.077,62.483,43.368,52.872,38.616,39.3c-.985-2.8-2.462-7.513-2.954-9.461l-.235-.878L32.6,28.834a48.343,48.343,0,0,1-19.115-5.287A51.818,51.818,0,0,1,1.391,15.669L0,14.32l.749.128a107.75,107.75,0,0,0,11.837.749c4.881,0,6.036-.214,10.853-1.969,4.666-1.712,5.266-1.884,7.984-2.1a8.532,8.532,0,0,0,4.067-1.049,25.751,25.751,0,0,0,3.254-1.969,56.011,56.011,0,0,0,7.15-7.085A3.941,3.941,0,0,1,46.793,0c.535,0,1.605,1.37,2.44,3.082,2.612,5.373,2.975,12.843.878,17.553a13.849,13.849,0,0,1-5.48,6.122c-.3.15-.557.3-.6.321-.128.128,3,4.666,5.737,8.348,8.305,11.152,14.47,17.167,24.4,23.8,16.268,10.874,39.751,19.308,59.4,21.363,5.822.6,20.935,1.07,42.49,1.306,11.538.128,23.311-.107,24.253-.471.728-.278.214-.6-2.547-1.712-5.137-2.034-5.544-2.569-5.908-7.535-.45-6.25-1.027-7.278-7.321-12.758-4-3.489-5.052-4.624-5.052-5.48,0-3.382,11.3-.728,19.907,4.688A22.031,22.031,0,0,1,205,64.538c.771,1.177,2.44,4.11,3.7,6.529,2.933,5.587,4,7.428,5.394,9.1,2.162,2.633,3.96,3.532,7.9,3.981,4.089.45,9.5-.428,19.351-3.125,8.091-2.226,12.908-3.425,15.947-3.96a31.12,31.12,0,0,0,6.4-1.969c5.48-2.141,7.171-2.419,8.8-1.434a3.913,3.913,0,0,1,1.135,1.22c1.092,1.969.45,3.211-3.981,7.556-3.917,3.832-4.238,4.324-5.2,8.348-1.134,4.773-1.327,5.416-2.162,7.064a72.338,72.338,0,0,1-6.1,9.183A68.589,68.589,0,0,1,245.1,117.775,148.156,148.156,0,0,1,225.51,129.7c-19.073,9.633-35.063,12.865-54.435,11.045-1.862-.193-5.673-.621-8.455-.985-6.529-.835-12.287-1.049-15.241-.535-2.911.514-4.709,1.092-13.678,4.452-8.263,3.082-11.538,4.131-15.262,4.9A33.923,33.923,0,0,1,110.775,149.07Zm70.211-14.235a50.09,50.09,0,0,0,11.024-2.355c3.853-1.284,6.186-2.483,7.835-4,2.183-2.012,2.419-3.832.9-6.721a4.834,4.834,0,0,0-3.682-2.89,6.914,6.914,0,0,0-6.486,2.1c-1.027,1.027-1.242,1.349-1.242,1.969,0,.771.257,1.006,1.092,1.006.578,0,.492.321-.235.856-3.168,2.269-11.666,3.1-14.62,1.434a1.633,1.633,0,0,1-.92-2.012,17.04,17.04,0,0,1,3.061-3.4,15.654,15.654,0,0,0,2.8-3.1c-.193-.6-2.933-.471-6.657.257a27.351,27.351,0,0,1-7.214.706,58.154,58.154,0,0,1-16.418-2.654c-14.192-4.024-31.21-11.495-55.612-24.4-12.758-6.743-17.232-9.055-17.339-8.948-.257.235,21.384,15.969,32.494,23.611,11.666,8.027,21.256,13.978,28.084,17.446a165.46,165.46,0,0,0,18.3,7.471C165.938,134.364,173.708,135.5,180.986,134.835ZM253.594,98.36c1.605-.171,2.611-.835,2.7-1.8.15-1.456-.92-2.119-2.29-1.413a16.664,16.664,0,0,0-3.232,3.318c0,.107.364.128.813.086C252.01,98.509,252.931,98.424,253.594,98.36Z" transform="translate(0 0)" fill="#2a295c"/>
    </g>
  </g>
</svg>
