<svg xmlns="http://www.w3.org/2000/svg" xmlns:xlink="http://www.w3.org/1999/xlink" width="719.085" height="422.121" viewBox="0 0 719.085 422.121">
  <defs>
    <linearGradient id="linear-gradient" x1="0.5" x2="0.5" y2="1" gradientUnits="objectBoundingBox">
      <stop offset="0" stop-color="#e1e2e7"/>
      <stop offset="1" stop-color="#6b6c8d"/>
    </linearGradient>
    <linearGradient id="linear-gradient-2" x1="0.5" x2="0.5" y2="1" gradientUnits="objectBoundingBox">
      <stop offset="0" stop-color="#6b6c8d"/>
      <stop offset="1" stop-color="#e1e2e7"/>
    </linearGradient>
    <linearGradient id="linear-gradient-4" x1="0.5" x2="0.5" y2="1" gradientUnits="objectBoundingBox">
      <stop offset="0" stop-color="#e1e2e7"/>
      <stop offset="1" stop-color="#e1e2e7"/>
    </linearGradient>
    <linearGradient id="linear-gradient-5" x1="0.5" x2="0.5" y2="1" gradientUnits="objectBoundingBox">
      <stop offset="0" stop-color="#3f3e88"/>
      <stop offset="1" stop-color="#272751"/>
    </linearGradient>
  </defs>
  <g id="whale" transform="matrix(0.978, -0.208, 0.208, 0.978, 0, 140.105)">
    <path id="Path_18" data-name="Path 18" d="M272.693,387.986s188.114-48.72,225.557-68.569,50.074-13.984,52.329-18.5-136.687-18.045-136.687-18.045l-141.2,32.48s-41.5,36.54-41.051,39.247,27.518,33.382,27.518,33.382Z" transform="translate(19.099 -207.943) rotate(12)" fill="url(#linear-gradient)"/>
    <path id="Path_16" data-name="Path 16" d="M150.937,346.188c.376-2.007,3.888-9.783,9.909-9.783.753,0,1.083-1.027,1.881-1.129,2.377-.234-.941-.8,23.2-7.275,27.594-7.4,29.852-7.024,29.852-7.024s8.278,1.631,5.519,3.888-8.4,14.048-10.787,14.675-4.766,6.4-11.414,6.648c-1.073.04-3.178,1.29-5.268,1.881-5.59,1.576-14.2,4.478-22.7,6.648-3.579.915-7.238,2.6-10.285,1.881-3.65-.861-5.464-.326-7.275-1.881C150.753,352.325,150.684,347.539,150.937,346.188Z" transform="translate(-1.725 -200.741) rotate(12)" fill="url(#linear-gradient-2)"/>
    <path id="Path_19" data-name="Path 19" d="M.057,12.009C.283,11.053,2.4,7.35,6.02,7.35c.453,0,.652-.489,1.132-.538,1.43-.111-.566-.381,13.964-3.465C37.723-.178,39.082,0,39.082,0S44.064.778,42.4,1.854s-5.057,6.691-6.492,6.99-2.868,3.047-6.869,3.166c-.646.019-1.912.614-3.17.9-3.364.751-8.544,2.133-13.663,3.166-2.154.436-4.356,1.239-6.19.9-2.2-.41-3.288-.155-4.378-.9A4.265,4.265,0,0,1,.057,12.009Z" transform="translate(590.858 179.031) rotate(3)" fill="url(#linear-gradient-2)"/>
    <path id="Path_17" data-name="Path 17" d="M137.159,24.309S86.083,41.789,58.77,40.7,4.417,34.141.32,21.851s32.5-13.11,32.5-13.11L113.943,0Z" transform="translate(6.464 176.51) rotate(10)" fill="url(#linear-gradient-4)"/>
    <path id="Path_15" data-name="Path 15" d="M246.914.342c2.792,1.053,2.212,6.479-3.108,29.023-6.268,26.442-7.374,43.614-3.74,57.783a50.127,50.127,0,0,0,7.164,15.328c2,2.686,2.054,2.739,5.425,3.055,1.949.158,5.267.316,7.427.316,4.372,0,31.709,2.16,43.982,3.424,21.385,2.212,49.2,6,70,9.481,54.833,9.218,59.205,10.377,128.313,33.974,48.934,16.645,67.685,21.069,103.978,24.493L620,178.484l5.057-3.635c11.114-7.9,21.754-12.694,28.5-12.8,3.318-.053,6.848,1.106,6.848,2.212,0,.263-2.318,1.738-5.109,3.266-4.951,2.739-11.22,7.954-11.22,9.323,0,.369.474.632,1.053.632,1.528,0,5.057,1.9,5.478,2.9.527,1.475.369,1.738-2.054,3.213-1.317.737-2.37,1.58-2.37,1.844,0,.632,6.637,7.532,17.066,17.856,9.271,9.165,11.43,11.746,10.377,12.8-1,1-6.637,1.053-10.587.105-7.532-1.844-20.911-9.481-34.4-19.7l-5.162-3.9-3.529.632c-20.227,3.582-34.132,4.477-79.116,5.32-29.392.527-40.4,1.053-49.25,2.423-34.448,5.215-112.195,15.539-143.535,19.12-27.548,3.16-61.733,6.057-87.438,7.427-10.9.579-42.929,1.58-50.725,1.58H205.25l1.633,2.37a36.5,36.5,0,0,1,5,11.061c.685,2.476.843,5.636.79,14.749-.053,21.017-1.475,26.653-7.532,29.919-1.9,1-2.95,1.159-8.006,1.106-14.38-.053-27.6-7.216-42.982-23.282-8.27-8.638-20.6-25.547-26.969-37.029l-.948-1.686-7.216.369c-3.951.158-13.01.79-20.121,1.37-21.385,1.738-33.922,1.37-47.406-1.37-11.641-2.37-29.6-8.954-36.239-13.274-6.163-4-14.169-12.8-15.117-16.539-.579-2.212.632-5.32,4-10.429A66.767,66.767,0,0,0,9.3,176.43c8.375-21.649,21.122-30.551,68.528-48.091,29.708-10.956,53.832-17.119,76.9-19.595,12.168-1.317,10.587-.421,13.326-7.269,17.593-43.982,43.35-82.908,63.84-96.5C237.8,1.027,243.859-.817,246.914.342ZM107.593,159.311c-12.694,1.106-21.017,2.265-24.335,3.529-6.637,2.476-10.219,10.9-6.373,15.012,3.476,3.687,8.322,4.056,30.6,2.265,14.7-1.159,17.277-1.58,20.543-3.213,4.688-2.423,15.381-11.114,16.7-13.642.737-1.37-.421-3.16-2.739-4.267-2.107-1-3-1.053-13.59-.79C122.184,158.363,112.808,158.837,107.593,159.311Zm199.633,6.795c-11.114,2.37-24.809,9.692-28.549,15.275-2.423,3.529-2.792,5.373-3.318,16.224-.421,9.007-.579,9.745-1.949,12.484a10.106,10.106,0,0,1-3.16,3.845c-3.74,2.212-21.649,4.214-45.984,5.162-20.279.79-27.654.685-28.444-.263a22.92,22.92,0,0,0-2.844-2.476c-1.211-.9.9,1.317,4.688,5L204.512,228H211.1c8.691.053,37.767-.843,50.04-1.528,38.452-2.16,72.742-5.425,121.676-11.588,16.7-2.107,95.392-12.747,98.5-13.326.421-.105-3.74-.053-9.218.053-5.531.105-17.488-.158-26.6-.632-39.558-2.054-53.938-1.791-94.022,1.844-27.127,2.476-30.34,2.581-32.921,1.264-3.318-1.633-5.267-3.9-5.267-6.057,0-3.74,3.792-7.532,8.006-8.059,1.264-.211,9.481-.474,18.33-.632,16.75-.369,20.911-.737,24.6-2.37,4.635-2.054,10.166-8.8,10.166-12.378a3.852,3.852,0,0,0-1-2.318c-2.528-2.528-15.7-5-36.4-6.9C329.717,164.736,311.65,165.158,307.226,166.106Zm338.269,16.171c-1.317-.527-1.37-.474-.79.474.369.579.9,1.053,1.159,1.053.79,0,4-2.16,4-2.686,0-.263-.685,0-1.475.579C647.18,182.593,646.654,182.7,645.495,182.276Zm-19.173-1.317a1.067,1.067,0,0,0,1,.053c.421-.158.263-.316-.316-.316C626.427,180.644,626.111,180.8,626.322,180.96Zm-14.169,9.587c-2.318,1.58-8.112,3.74-10.166,3.845-.474,0-.579.158-.211.263.9.369,15.855-1.791,19.331-2.792.843-.211.474-.737-2.107-3.055l-3.108-2.739-.579,1.422A9.725,9.725,0,0,1,612.152,190.546ZM1.983,198.553c1.369,2.634,7.638,9.323,11.746,12.484,3.845,2.95,13.59,7.374,23.545,10.693C56.026,227.944,71.459,229.261,98.9,227c6.795-.527,15.644-1.159,19.595-1.37l7.216-.369-1.159-2.107c-1.053-1.949-2-2.95-6.321-6.9l-1.633-1.528,1.159-.948c1.053-.843,1.106-1.106.527-2.054-1.58-2.581-9.481-6.321-17.7-8.428-5.847-1.475-8.27-1.9-18.752-3.424l-8.9-1.317-1.264,1.159c-2.476,2.318-10.693,1.633-10.693-.948,0-.579-.421-.737-1.738-.474-.9.158-5.847.632-10.9,1.106-5.057.421-13.484,1.475-18.7,2.318s-10.8,1.686-12.431,1.844c-7.48.9-15.591-3.266-15.8-8.112-.105-1.159-.105-1.211-.316-.211A6.942,6.942,0,0,0,1.983,198.553Zm480.751,2.476a3.98,3.98,0,0,0,1.58,0c.527-.158.211-.263-.632-.263C482.786,200.765,482.418,200.87,482.734,201.028Zm-306.77,7.322a1.067,1.067,0,0,0,1,.053c.421-.158.263-.316-.316-.316C176.069,208.034,175.753,208.192,175.963,208.35Zm5.109,1.475a35.27,35.27,0,0,1,5.109,2.107c.948.474,1.738.737,1.738.579,0-.369-4.214-2.476-6.584-3.213C177.7,208.139,177.491,208.561,181.073,209.825Z" fill="url(#linear-gradient-5)"/>
  </g>
</svg>
